<svg id="ec087dd2-d31c-4fa2-b695-2c6766410c5b" data-name="b2e3397a-9e30-4c4a-9dd1-3bb8f75b8c62" xmlns="http://www.w3.org/2000/svg" viewBox="0 0 1904.88 499"><defs><style>.a3cd84bf-665b-42f3-abcd-5a0eb7160b4d{fill:none;}.a7b1b108-63f5-4f73-9ab9-a367c2af562a{fill:#fff;}</style></defs><title>combined-logo-white</title><rect class="a3cd84bf-665b-42f3-abcd-5a0eb7160b4d" x="1405.27" width="499" height="499"/><polygon class="a7b1b108-63f5-4f73-9ab9-a367c2af562a" points="1677.24 167.9 1647.31 115.7 1642.9 123.1 1668.93 167.9 1677.24 167.9"/><path class="a7b1b108-63f5-4f73-9ab9-a367c2af562a" d="M1537.39,261.7c0-17.8-1.5-24.7-13.11-24.7h-7.11v49.4h7.11C1535.89,286.4,1537.39,279.5,1537.39,261.7Z" transform="translate(1)"/><path class="a7b1b108-63f5-4f73-9ab9-a367c2af562a" d="M1682.65,329.5v-1.2a13.47,13.47,0,0,0-.3-3.1,3.93,3.93,0,0,0-1-1.9,3.44,3.44,0,0,0-2.1-.9,18.52,18.52,0,0,0-3.71-.3h-7.91v13.6h7.91a18.52,18.52,0,0,0,3.71-.3,5.24,5.24,0,0,0,2.1-.9,3.93,3.93,0,0,0,1-1.9A13.47,13.47,0,0,0,1682.65,329.5Z" transform="translate(1)"/><polygon class="a7b1b108-63f5-4f73-9ab9-a367c2af562a" points="1661.22 167.9 1639.3 129.6 1634.79 137.2 1652.61 167.9 1661.22 167.9"/><polygon class="a7b1b108-63f5-4f73-9ab9-a367c2af562a" points="1622.88 157.9 1616.97 167.9 1628.69 167.9 1622.88 157.9"/><polygon class="a7b1b108-63f5-4f73-9ab9-a367c2af562a" points="1644.81 167.9 1630.99 143.7 1626.48 151.3 1636.1 167.9 1644.81 167.9"/><path class="a7b1b108-63f5-4f73-9ab9-a367c2af562a" d="M1653.92,0C1516,.06,1404.29,111.77,1404.35,249.52v.18c.1,137.4,112.12,249.3,249.77,249.3h.2c137.75-.1,249.67-112.1,249.57-249.7S1791.67,0,1653.92,0Zm102.61,224.6h18.72l18,45.9V224.6H1807v74.6h-17.12L1770,250.4v48.8h-13.51Zm-25.13,0h15.12v74.6H1731.4ZM1608.47,94.7h91.7v62.6a45.85,45.85,0,0,1-91.7,0Zm-47,129.9h40.34v12.6h-24.62v15.9h22.62v13h-22.62V286h24.62v13.2h-40.34Zm-59.86,0h25.62c19.93,0,26.13,10.6,26.13,37.3s-6.2,37.3-26.13,37.3h-25.62Zm30.53,118a23.29,23.29,0,0,1-.9,7,10.24,10.24,0,0,1-7.51,7,26.58,26.58,0,0,1-6.71.7h-.5a24.92,24.92,0,0,1-6.5-.7,10.61,10.61,0,0,1-4.71-2.5,11.48,11.48,0,0,1-2.8-4.5,23,23,0,0,1-.9-7V316.7q0-.3.6-.6a5.74,5.74,0,0,1,1.4-.4c.5-.1,1.1-.2,1.7-.3a7.27,7.27,0,0,1,1.4-.1,1.7,1.7,0,0,1,1.7,1.7v25.2a18,18,0,0,0,.4,4.2,6.68,6.68,0,0,0,1.31,2.8,6.35,6.35,0,0,0,2.5,1.6,15,15,0,0,0,4,.5h.5a14.7,14.7,0,0,0,4-.5,5.78,5.78,0,0,0,2.6-1.6,6.73,6.73,0,0,0,1.4-2.8c.1-1.1.2-2.5.2-4.1V316.8q0-.3.6-.6a5.74,5.74,0,0,1,1.4-.4l1.71-.3a7.27,7.27,0,0,1,1.4-.1,1.7,1.7,0,0,1,1.2.5,1.85,1.85,0,0,1,.5,1.2Zm39,13.3a1.44,1.44,0,0,1-.5,1.1,1.75,1.75,0,0,1-1.2.4h-1.2a7.52,7.52,0,0,1-1.5-.2c-.5-.1-1-.2-1.41-.3a1.21,1.21,0,0,1-.8-.5l-18.42-28.2V356a1.41,1.41,0,0,1-.5,1.1,1.59,1.59,0,0,1-1.2.4,8.17,8.17,0,0,1-1.4-.1,9.74,9.74,0,0,1-1.7-.2,5.74,5.74,0,0,1-1.4-.4q-.6-.3-.6-.6V316.6q0-.3.6-.6a5.74,5.74,0,0,1,1.4-.4c.5-.1,1.1-.1,1.6-.2a7.08,7.08,0,0,1,1.4-.1,1.15,1.15,0,0,1,1,.4,2.55,2.55,0,0,1,.7.8l18.42,28.4V316.5c0-.2.2-.4.6-.5s.91-.2,1.51-.3,1.1-.1,1.7-.2a7.6,7.6,0,0,1,1.4-.1c1,0,1.5.6,1.5,1.7Zm14,0a1.44,1.44,0,0,1-.5,1.1,1.77,1.77,0,0,1-1.21.4,8.24,8.24,0,0,1-1.4-.1,9.74,9.74,0,0,1-1.7-.2,5.74,5.74,0,0,1-1.4-.4q-.6-.3-.6-.6V316.5q0-.3.6-.6a5.74,5.74,0,0,1,1.4-.4c.5-.1,1.1-.1,1.7-.2a7.6,7.6,0,0,1,1.4-.1,1.7,1.7,0,0,1,1.21.5,1.63,1.63,0,0,1,.5,1.1Zm37.44-38.5-13,39.1a1.33,1.33,0,0,1-.6.7,3.12,3.12,0,0,1-1,.2,24.7,24.7,0,0,1-3.1-.2,2.45,2.45,0,0,1-1.61-.6l-13.11-39.2a1.39,1.39,0,0,1,0-.9,2.9,2.9,0,0,1,.5-.6,2,2,0,0,1,.8-.3,2.12,2.12,0,0,1,.7-.1,9.65,9.65,0,0,1,1.7.1,8,8,0,0,1,1.61.2,3.4,3.4,0,0,1,1.2.4,1.58,1.58,0,0,1,.7.7l8.71,29a6.72,6.72,0,0,1,.3,1.4c.1.5.1,1,.2,1.4,0-.4.1-.9.1-1.4a5.74,5.74,0,0,1,.4-1.4l8.51-29.3a3.24,3.24,0,0,1,1.8-1,17.52,17.52,0,0,1,2.4-.2,4.79,4.79,0,0,1,1.2.1,1.68,1.68,0,0,1,1,.3.92.92,0,0,1,.61.6A1.7,1.7,0,0,1,1622.59,317.4Zm30.83,1.4a8.33,8.33,0,0,1-.2,1.5,11.69,11.69,0,0,1-.3,1.2.63.63,0,0,1-.6.5h-18v11h15.51a1.41,1.41,0,0,1,1,.5,1.53,1.53,0,0,1,.4,1.1,6.94,6.94,0,0,1-.1,1.2,8.33,8.33,0,0,1-.2,1.5,11.69,11.69,0,0,1-.3,1.2c-.2.3-.3.5-.61.5H1634.2v11.6h17.62a1.25,1.25,0,0,1,1,.5,1.6,1.6,0,0,1,.4,1.2,6.08,6.08,0,0,1-.1,1.2,8.33,8.33,0,0,1-.2,1.5,11.69,11.69,0,0,1-.3,1.2.63.63,0,0,1-.6.5h-22.23a3.86,3.86,0,0,1-1.7-.4c0-.2-.3-.4-.3-.7V317.5a1.27,1.27,0,0,1,.5-1.1,2.45,2.45,0,0,1,1.2-.4h22.63a1.25,1.25,0,0,1,1,.5,1.49,1.49,0,0,1,.4,1.1A6.08,6.08,0,0,1,1653.42,318.8Zm-1.5-19.6-4-16.6h-21.62l-3.9,16.6h-15.72l21-74.6h19.92l20.72,74.6Zm37.44,58.2a1.7,1.7,0,0,1-.7.1h-.5a6.37,6.37,0,0,1-1.31-.1,8.65,8.65,0,0,1-1.6-.2,8.74,8.74,0,0,1-1.5-.4,2.39,2.39,0,0,1-.9-.8l-8.31-14.2h-6.91V356a1.41,1.41,0,0,1-.5,1.1,1.6,1.6,0,0,1-1.2.4,8.17,8.17,0,0,1-1.4-.1,9.74,9.74,0,0,1-1.7-.2,5.62,5.62,0,0,1-1.4-.4c-.3-.2-.5-.4-.5-.6V317.5a1.2,1.2,0,0,1,.5-1,1.59,1.59,0,0,1,1.2-.4h12.51a30.58,30.58,0,0,1,6.61.6,10.29,10.29,0,0,1,4.5,2,7.32,7.32,0,0,1,2.51,3.8,20,20,0,0,1,.8,6v1.2a20.89,20.89,0,0,1-.4,4.6,10.67,10.67,0,0,1-1.31,3.4,7.53,7.53,0,0,1-2.4,2.3,11.6,11.6,0,0,1-3.6,1.3l7.81,13.6a4,4,0,0,1,.6,1.6A1.07,1.07,0,0,1,1689.36,357.4Zm30.63-5.5a9.2,9.2,0,0,1-3.2,3.3,13.32,13.32,0,0,1-4.61,1.6,32.57,32.57,0,0,1-5.4.5,24.46,24.46,0,0,1-2.71-.1,26.32,26.32,0,0,1-2.8-.3,20.38,20.38,0,0,1-2.6-.4c-.8-.2-1.5-.3-2.11-.5s-.9-.4-1-.6a4.37,4.37,0,0,1-.1-1.3,11.1,11.1,0,0,1,.6-2.8c.2-.6.6-1,1.11-.8a10.53,10.53,0,0,0,1.4.3c.6.1,1.3.3,2.1.5a19.34,19.34,0,0,0,2.7.4,28.25,28.25,0,0,0,2.9.2,13.85,13.85,0,0,0,3-.3,15.63,15.63,0,0,0,2.6-.8,4,4,0,0,0,1.8-1.6,4,4,0,0,0,.7-2.5,4.49,4.49,0,0,0-1.3-3.4,23.71,23.71,0,0,0-3.3-2.7c-1.3-.8-2.8-1.7-4.31-2.5a21.49,21.49,0,0,1-4.3-2.9,12.86,12.86,0,0,1-3.3-4,10.72,10.72,0,0,1-1.31-5.6,9.92,9.92,0,0,1,1-4.7,9,9,0,0,1,2.7-3.1,13.25,13.25,0,0,1,4.2-1.8,22.39,22.39,0,0,1,5.41-.6,17.28,17.28,0,0,1,1.9.1c.8,0,1.7.1,2.7.2a26.76,26.76,0,0,1,2.81.4,17.06,17.06,0,0,1,2.2.6,2.13,2.13,0,0,1,1,.7,4.37,4.37,0,0,1,.1,1.3,8.31,8.31,0,0,1-.6,2.5,1.19,1.19,0,0,1-1.4.8c-.9-.2-2-.4-3.21-.6a25.55,25.55,0,0,0-4.1-.3,13.62,13.62,0,0,0-5.71,1,3.45,3.45,0,0,0-2.2,3.4,4.4,4.4,0,0,0,1.3,3.2,17.55,17.55,0,0,0,3.31,2.5c1.3.8,2.8,1.6,4.3,2.5a18.61,18.61,0,0,1,4.31,3,15,15,0,0,1,3.3,4.1,11.59,11.59,0,0,1,1.3,5.8A10.61,10.61,0,0,1,1720,351.9Zm4.5-52.7h-18l-17.62-36.3v36.3h-15.52V224.6h15.42V257l19.42-32.4h16.31L1703,258.9Zm10.62,56.7a1.42,1.42,0,0,1-.51,1.1,1.73,1.73,0,0,1-1.2.4,8.24,8.24,0,0,1-1.4-.1,9.74,9.74,0,0,1-1.7-.2,5.74,5.74,0,0,1-1.4-.4q-.6-.3-.6-.6V316.5q0-.3.6-.6a5.74,5.74,0,0,1,1.4-.4c.5-.1,1.1-.1,1.7-.2a7.6,7.6,0,0,1,1.4-.1,1.66,1.66,0,0,1,1.2.5,1.6,1.6,0,0,1,.51,1.1Zm36-37.1a6.86,6.86,0,0,1-.2,1.5,8.1,8.1,0,0,1-.3,1.2.63.63,0,0,1-.6.5h-10.61v.2h0v33.7a1.41,1.41,0,0,1-.5,1.1,1.87,1.87,0,0,1-1.2.4,8.17,8.17,0,0,1-1.4-.1,9.74,9.74,0,0,1-1.7-.2,5.69,5.69,0,0,1-1.41-.4q-.6-.3-.6-.6V322h-10.41a1.25,1.25,0,0,1-1-.5,1.6,1.6,0,0,1-.4-1.2,6.08,6.08,0,0,1,.1-1.2,8.33,8.33,0,0,1,.2-1.5,11.69,11.69,0,0,1,.3-1.2.63.63,0,0,1,.6-.5h27.83a1.22,1.22,0,0,1,1,.5,1.56,1.56,0,0,1,.4,1.2A5.41,5.41,0,0,1,1771.14,318.8Zm36.44-1.1-12.21,24.1v14.1a1.44,1.44,0,0,1-.5,1.1,1.76,1.76,0,0,1-1.2.4,6.28,6.28,0,0,1-1.3-.1,8.75,8.75,0,0,1-1.61-.2,5.74,5.74,0,0,1-1.4-.4q-.6-.3-.6-.6V341.7l-12.31-24c-.4-.8-.5-1.4-.2-1.8a2.15,2.15,0,0,1,1.8-.6h1.6c.5,0,1.1.1,1.5.1s.81.18,1.21.3a1.31,1.31,0,0,1,.7.5l9,18.5,9-18.4a1,1,0,0,1,.7-.5,11.69,11.69,0,0,1,1.2-.3,7.52,7.52,0,0,1,1.5-.1h1.6a2.27,2.27,0,0,1,1.7.5C1808.08,316.3,1808,316.9,1807.58,317.7Z" transform="translate(1)"/><polygon class="a7b1b108-63f5-4f73-9ab9-a367c2af562a" points="1693.56 167.9 1655.42 101.6 1650.91 109.1 1684.85 167.9 1693.56 167.9"/><polygon class="a7b1b108-63f5-4f73-9ab9-a367c2af562a" points="1630.49 269.7 1645.81 269.7 1638.3 238.9 1630.49 269.7"/><g id="a901d532-c162-4436-8ef9-48eef9906721" data-name="a927808e-a6d6-433c-909c-e9ea6309351c"><g id="b96fa3fa-fc9f-4b61-87ff-8de43e0e3fd9" data-name="e170a083-a57b-428b-86e7-5445e41a2bdd"><g id="e2a3ff19-ff8f-40f0-b163-bb4bf59d30a7" data-name="b300402b-2dfb-44ce-915b-d26bba1f493b"><path id="eef4a80b-e91a-4cae-93a4-660a7d1617d7" data-name="a46f695f-4dda-4180-8be9-13877767180e" class="a7b1b108-63f5-4f73-9ab9-a367c2af562a" d="M557.15,342.6l-6-18.5H530.62L524.21,343a1.34,1.34,0,0,1-1.2.8,13.37,13.37,0,0,1-2.1.1,2,2,0,0,1-.9-.2c-.3-.1-.4-.3-.4-.7v-.3c0-.1.1-.2.1-.4l18.72-55.5q.15-.6,1.2-.9a8.82,8.82,0,0,1,2.4-.3c.7,0,1.2.4,1.51,1.3l18.51,55.4a.7.7,0,0,1,.1.4v.3c0,.4-.1.6-.4.7a3,3,0,0,1-.8.2,15.05,15.05,0,0,1-2.5-.2A1.66,1.66,0,0,1,557.15,342.6Zm-16.92-48-8.41,25.5h18l-8.41-25.5a8.74,8.74,0,0,1-.4-1.5c-.1-.5-.2-1-.3-1.4-.1.4-.2.9-.3,1.4a2.66,2.66,0,0,1-.2,1.5Zm27.83,48.2V288.7c0-.9.1-1.5.4-1.7a1.73,1.73,0,0,1,1-.3h16.32a35.42,35.42,0,0,1,8.71.9,12.88,12.88,0,0,1,5.51,2.7,10.49,10.49,0,0,1,2.8,4.9,31.05,31.05,0,0,1,.8,7.5v.8a28.13,28.13,0,0,1-.9,7.7,10.92,10.92,0,0,1-2.91,4.9,11.79,11.79,0,0,1-5.5,2.6,39.85,39.85,0,0,1-8.51.8h-13v22.4a2.71,2.71,0,0,1-.3,1.4,1,1,0,0,1-1,.6,6.26,6.26,0,0,1-2.3-.4c-.8-.1-1.1-.4-1.1-.7Zm17.72-52h-13v24.5h13a38.35,38.35,0,0,0,6.51-.5,8.77,8.77,0,0,0,4-1.8,7,7,0,0,0,2-3.6,23.1,23.1,0,0,0,.6-5.8v-.8a23.42,23.42,0,0,0-.6-5.9,7.32,7.32,0,0,0-2-3.6,7.82,7.82,0,0,0-4-1.8,23.81,23.81,0,0,0-6.51-.7Zm25.23,52V288.7c0-.9.1-1.5.4-1.7a1.68,1.68,0,0,1,1-.3h16.32a35.47,35.47,0,0,1,8.71.9,12.85,12.85,0,0,1,5.5,2.7,10.33,10.33,0,0,1,2.8,4.9,31.05,31.05,0,0,1,.8,7.5v.8a27.75,27.75,0,0,1-.9,7.7,10.82,10.82,0,0,1-2.9,4.9,12.32,12.32,0,0,1-5.51,2.6,39.75,39.75,0,0,1-8.5.8h-13v22.4a2.61,2.61,0,0,1-.3,1.4,1,1,0,0,1-1,.6,6.19,6.19,0,0,1-2.3-.4c-.8-.1-1.1-.4-1.1-.7Zm17.72-52h-13v24.5h13a38.23,38.23,0,0,0,6.5-.5,8.76,8.76,0,0,0,4-1.8,7.09,7.09,0,0,0,2-3.6,23.57,23.57,0,0,0,.6-5.8v-.8a23.42,23.42,0,0,0-.6-5.9,7.4,7.4,0,0,0-2-3.6,7.89,7.89,0,0,0-4-1.8,24.5,24.5,0,0,0-6.5-.7ZM683.38,343H656.46a4.29,4.29,0,0,1-1.81-.3c-.4-.2-.6-.4-.6-.7V286.9c0-.3.4-.5,1.1-.8a5.89,5.89,0,0,1,2.31-.4,1.16,1.16,0,0,1,1.1.6,3.36,3.36,0,0,1,.3,1.5v51.1h23.72a2.63,2.63,0,0,1,1.2.3c.41.2.51.5.51,1a6.48,6.48,0,0,1-.31,2C683.78,342.7,683.58,343,683.38,343Zm11.12-1.1a2.71,2.71,0,0,1-.3,1.4,1.17,1.17,0,0,1-1.11.6,5.37,5.37,0,0,1-2.2-.4c-.7-.2-1.1-.5-1.1-.7v-56c0-.3.4-.5,1.1-.8a5.37,5.37,0,0,1,2.2-.4,1.17,1.17,0,0,1,1.11.6,3.5,3.5,0,0,1,.3,1.5Zm9.91-.1V288.7c0-1.4.5-2,1.4-2h29.13a2.63,2.63,0,0,1,1.2.3c.4.2.5.5.5,1a6.78,6.78,0,0,1-.3,2c-.2.7-.4.9-.7.9H709v21.5h24.13a2.63,2.63,0,0,1,1.2.3,1,1,0,0,1,.6,1,4.41,4.41,0,0,1-.4,1.9c-.3.6-.5,1-.7,1H709V339h25.83a2.63,2.63,0,0,1,1.2.3c.4.2.5.5.5,1a6.78,6.78,0,0,1-.3,2c-.2.7-.4.9-.7.9H707.11a5.53,5.53,0,0,1-1.8-.3C704.71,342.5,704.41,342.2,704.41,341.8ZM747,286.6h14.32a37.78,37.78,0,0,1,9.41,1.1,14.93,14.93,0,0,1,6.6,3.5,14.7,14.7,0,0,1,3.91,6.4,30.63,30.63,0,0,1,1.3,9.8v14.8a30.63,30.63,0,0,1-1.3,9.8,15.76,15.76,0,0,1-3.91,6.4,16,16,0,0,1-6.6,3.5,37.78,37.78,0,0,1-9.41,1.1H747.55a6.18,6.18,0,0,1-1.9-.3c-.7-.2-1-.5-1-.9V288.6c0-.9.2-1.4.7-1.7a4.17,4.17,0,0,1,1.6-.3Zm14.42,4.2H749.45v48.1h11.92A28,28,0,0,0,769,338a10.75,10.75,0,0,0,5.1-2.9,11.76,11.76,0,0,0,2.9-5.3,30.7,30.7,0,0,0,.9-8.1V307.8a30.7,30.7,0,0,0-.9-8.1,11.76,11.76,0,0,0-2.9-5.3,11.53,11.53,0,0,0-5.1-2.9,29.11,29.11,0,0,0-7.61-.7Zm78.18,51.8-6-18.5H813l-6.4,18.9a1.35,1.35,0,0,1-1.21.8,13.37,13.37,0,0,1-2.1.1,2,2,0,0,1-.9-.2c-.3-.1-.4-.3-.4-.7v-.3c0-.1.1-.2.1-.4l18.72-55.5q.15-.6,1.2-.9a8.87,8.87,0,0,1,2.4-.3c.71,0,1.21.4,1.51,1.3l18.52,55.4a.79.79,0,0,1,.1.4v.3c0,.4-.1.6-.4.7a3.2,3.2,0,0,1-.81.2,15.05,15.05,0,0,1-2.5-.2,1.66,1.66,0,0,1-1.3-1.1Zm-17-48-8.41,25.5h18l-8.41-25.5a8.74,8.74,0,0,1-.4-1.5c-.1-.5-.2-1-.3-1.4-.1.4-.2.9-.3,1.4a2.5,2.5,0,0,1-.2,1.5Zm27.83,48.2V288.6a2,2,0,0,1,.4-1.4,1.16,1.16,0,0,1,1.1-.6h16.22a35.42,35.42,0,0,1,8.71.9,11.92,11.92,0,0,1,5.51,2.8,10.27,10.27,0,0,1,2.8,5,31.05,31.05,0,0,1,.8,7.5v.8a39.26,39.26,0,0,1-.5,6.4,12,12,0,0,1-1.9,4.6,9.2,9.2,0,0,1-3.71,3,20.91,20.91,0,0,1-5.9,1.6l12.21,22.2a3,3,0,0,0,.4.8,1.33,1.33,0,0,1,.2.8.67.67,0,0,1-.5.7,3.78,3.78,0,0,1-1,.2,6.73,6.73,0,0,1-2.3-.5,3.52,3.52,0,0,1-1.8-1.6l-12.22-22.3H855.07v22.4a2.71,2.71,0,0,1-.3,1.4,1,1,0,0,1-1,.6,6.28,6.28,0,0,1-2.31-.4C850.76,343.4,850.36,343.1,850.36,342.8Zm17.92-52H855.07v24.6h13.21a36.22,36.22,0,0,0,6.41-.5,7.82,7.82,0,0,0,4-1.8,7,7,0,0,0,2-3.6,25.18,25.18,0,0,0,.51-6v-.8a32.63,32.63,0,0,0-.51-6,7,7,0,0,0-2-3.7,7.82,7.82,0,0,0-4-1.8A38.2,38.2,0,0,0,868.28,290.8Zm42.85,0v51.1a2.71,2.71,0,0,1-.3,1.4,1,1,0,0,1-1,.6,5.89,5.89,0,0,1-2.31-.4c-.7-.2-1.1-.5-1.1-.7v-52H890.51a2.87,2.87,0,0,1-1.41-.3,1.13,1.13,0,0,1-.5-1,7.12,7.12,0,0,1,.3-2c.2-.6.4-.9.7-.9H927a2.83,2.83,0,0,1,1.31.3,1,1,0,0,1,.6,1,6.78,6.78,0,0,1-.3,2c-.2.6-.4.9-.71.9Zm27,51.1a2.71,2.71,0,0,1-.3,1.4,1.17,1.17,0,0,1-1.11.6,5.37,5.37,0,0,1-2.2-.4c-.7-.2-1.1-.5-1.1-.7v-56c0-.3.4-.5,1.1-.8a5.37,5.37,0,0,1,2.2-.4,1.17,1.17,0,0,1,1.11.6,3.5,3.5,0,0,1,.3,1.5Zm14.61-25.5v25.5a2.61,2.61,0,0,1-.3,1.4,1.16,1.16,0,0,1-1.1.6,5.72,5.72,0,0,1-2.2-.4c-.7-.2-1.1-.5-1.1-.7V288.1a1.35,1.35,0,0,1,.5-1.2,4.27,4.27,0,0,1,2-.3H978.7a2.63,2.63,0,0,1,1.2.3c.4.2.5.5.5,1a6.78,6.78,0,0,1-.3,2c-.2.7-.4.9-.7.9H952.77v21.5H975.4a2.13,2.13,0,0,1,1.2.3,1.11,1.11,0,0,1,.5,1,6.78,6.78,0,0,1-.3,2c-.2.6-.4.9-.7.9l-23.33-.1Zm37.54,25.5a2.61,2.61,0,0,1-.3,1.4,1.16,1.16,0,0,1-1.1.6,5.37,5.37,0,0,1-2.2-.4c-.7-.2-1.1-.5-1.1-.7v-56c0-.3.4-.5,1.1-.8a5.37,5.37,0,0,1,2.2-.4,1.16,1.16,0,0,1,1.1.6,3.23,3.23,0,0,1,.3,1.5Zm13.62-35v15.8a36.14,36.14,0,0,0,.8,8.1,10.72,10.72,0,0,0,2.7,5.3,9.74,9.74,0,0,0,4.8,2.9,25.11,25.11,0,0,0,7.21.9h.6a44.42,44.42,0,0,0,7-.5c1.9-.4,3.2-.6,3.9-.7.41-.1.71.3.91,1.1a8,8,0,0,1,.2,2c0,.3-.4.5-1.11.8a13.64,13.64,0,0,1-2.9.7c-1.2.2-2.5.3-4,.4s-2.91.2-4.41.2h-.6a32.4,32.4,0,0,1-8.81-1.1,14.62,14.62,0,0,1-6.2-3.5,14.88,14.88,0,0,1-3.71-6.4,34.11,34.11,0,0,1-1.2-9.8V306.3a34.11,34.11,0,0,1,1.2-9.8,15.42,15.42,0,0,1,3.71-6.4,15,15,0,0,1,6.3-3.5,33.12,33.12,0,0,1,8.91-1.1h.6c1.3,0,2.61.1,4,.2s2.8.2,4,.4,2.2.4,3,.6,1.21.5,1.21.8a20.2,20.2,0,0,1-.2,2.2c-.1.8-.4,1-.7,1a6.32,6.32,0,0,1-1.51-.3,14.55,14.55,0,0,0-2.5-.4c-1-.1-2.1-.2-3.3-.4a22.47,22.47,0,0,0-3.71-.2h-.6a25.8,25.8,0,0,0-7.31.9,10.53,10.53,0,0,0-4.8,2.9,12.56,12.56,0,0,0-2.7,5.3,33.44,33.44,0,0,0-.8,8.4Zm40.14,35a2.61,2.61,0,0,1-.3,1.4,1.16,1.16,0,0,1-1.1.6,5.38,5.38,0,0,1-2.21-.4c-.7-.2-1.1-.5-1.1-.7v-56c0-.3.4-.5,1.1-.8a5.38,5.38,0,0,1,2.21-.4,1.16,1.16,0,0,1,1.1.6,3.36,3.36,0,0,1,.3,1.5Zm43.45.7-6-18.5h-20.42l-6.41,18.9a1.34,1.34,0,0,1-1.2.8,13.43,13.43,0,0,1-2.1.1,2,2,0,0,1-.9-.2.7.7,0,0,1-.4-.7v-.3c0-.1.1-.2.1-.4l18.72-55.5q.15-.6,1.2-.9a8.82,8.82,0,0,1,2.4-.3c.7,0,1.2.4,1.5,1.3l18.52,55.4a.79.79,0,0,1,.1.4v.3c0,.4-.1.6-.4.7a3.24,3.24,0,0,1-.8.2,14.88,14.88,0,0,1-2.5-.2A1.92,1.92,0,0,1,1087.52,342.6Zm-16.92-48-8.41,25.5h18l-8.41-25.5a7.91,7.91,0,0,1-.4-1.5c-.1-.5-.2-1-.3-1.4-.1.4-.2.9-.3,1.4A2.66,2.66,0,0,1,1070.6,294.6Zm57.26,48.4h-26.93a4.24,4.24,0,0,1-1.8-.3c-.4-.2-.6-.4-.6-.7V286.9c0-.3.4-.5,1.1-.8a5.81,5.81,0,0,1,2.3-.4,1.16,1.16,0,0,1,1.1.6,3.23,3.23,0,0,1,.3,1.5v51.1h23.73a2.63,2.63,0,0,1,1.2.3c.4.2.5.5.5,1a6.78,6.78,0,0,1-.3,2C1128.36,342.7,1128.06,343,1127.86,343ZM528.32,417a2.61,2.61,0,0,1-.3,1.4,1.16,1.16,0,0,1-1.1.6,5.31,5.31,0,0,1-2.2-.4c-.71-.2-1.11-.5-1.11-.7v-56c0-.3.4-.5,1.11-.8a5.31,5.31,0,0,1,2.2-.4,1.16,1.16,0,0,1,1.1.6,3.36,3.36,0,0,1,.3,1.5Zm45.45-6.9V361.8c0-.3.3-.5,1-.7a7.83,7.83,0,0,1,2.3-.4.8.8,0,0,1,.9.69h0a7.52,7.52,0,0,1,.2,1.5v54a2,2,0,0,1-.4,1.4,1.54,1.54,0,0,1-1,.6,6.85,6.85,0,0,1-1.9-.3c-.7-.2-1.1-.4-1.2-.7l-31-48.4V417a2.61,2.61,0,0,1-.3,1.4,1.17,1.17,0,0,1-1,.6,5.21,5.21,0,0,1-2.2-.4c-.7-.2-1-.5-1-.7v-56c0-.3.3-.5.9-.8a4.89,4.89,0,0,1,2.2-.4,1.22,1.22,0,0,1,.9.4,1.47,1.47,0,0,1,.5.7Zm31.43-44.2V417a2.61,2.61,0,0,1-.3,1.4,1.17,1.17,0,0,1-1,.6,5.81,5.81,0,0,1-2.3-.4c-.7-.2-1.1-.5-1.1-.7v-52H584.58a2.81,2.81,0,0,1-1.4-.3c-.4-.2-.5-.5-.5-1a6.78,6.78,0,0,1,.3-2c.2-.6.4-.9.7-.9h37.44a2.79,2.79,0,0,1,1.3.3,1,1,0,0,1,.6,1,6.47,6.47,0,0,1-.3,2c-.2.6-.4.9-.7.9Zm22.32,51V363.8c0-1.4.51-2,1.41-2h29.13a2.63,2.63,0,0,1,1.2.3c.4.2.5.5.5,1a6.78,6.78,0,0,1-.3,2c-.2.6-.4.9-.7.9H632.13v21.5h24.13a2.66,2.66,0,0,1,1.2.3,1,1,0,0,1,.6,1,4.41,4.41,0,0,1-.4,1.9c-.3.6-.5,1-.7,1H632.13v22.4H658a2.63,2.63,0,0,1,1.2.3c.4.2.5.5.5,1a6.78,6.78,0,0,1-.3,2c-.2.6-.4.9-.7.9H630.23a5.48,5.48,0,0,1-1.8-.3C627.93,417.5,627.52,417.3,627.52,416.9Zm69.68,1.2H670.27a4.24,4.24,0,0,1-1.8-.3c-.4-.2-.6-.4-.6-.7V362c0-.3.4-.5,1.1-.8a5.81,5.81,0,0,1,2.3-.4,1.16,1.16,0,0,1,1.1.6,3.23,3.23,0,0,1,.3,1.5V414H696.4a2.63,2.63,0,0,1,1.2.3c.4.2.5.5.5,1a6.47,6.47,0,0,1-.3,2C697.6,417.9,697.4,418.1,697.2,418.1Zm35.74,0H706a4.24,4.24,0,0,1-1.8-.3c-.4-.2-.6-.4-.6-.7V362c0-.3.4-.5,1.1-.8a5.81,5.81,0,0,1,2.3-.4,1.16,1.16,0,0,1,1.1.6,3.23,3.23,0,0,1,.3,1.5V414h23.73a2.66,2.66,0,0,1,1.2.3c.4.2.5.5.5,1a6.78,6.78,0,0,1-.3,2C733.44,417.8,733.24,418.1,732.94,418.1Zm11.21-1.1a2.61,2.61,0,0,1-.3,1.4,1.16,1.16,0,0,1-1.1.6,5.31,5.31,0,0,1-2.2-.4c-.71-.2-1.11-.5-1.11-.7v-56c0-.3.4-.5,1.11-.8a5.31,5.31,0,0,1,2.2-.4,1.16,1.16,0,0,1,1.1.6,3.36,3.36,0,0,1,.3,1.5Zm13.61-35v15.8a31.56,31.56,0,0,0,.9,8.1,11.1,11.1,0,0,0,3,5.3,12.63,12.63,0,0,0,5.2,2.9,28.36,28.36,0,0,0,7.61.9h.8a37.79,37.79,0,0,0,6.11-.4c1.8-.2,3.9-.6,6.21-1V392.4c0-.3.3-.6.9-.7a6.8,6.8,0,0,1,2.2-.3,1.75,1.75,0,0,1,1.3.5,3.43,3.43,0,0,1,.3,1.7v20.8a3.37,3.37,0,0,1-.3,1.8,2.14,2.14,0,0,1-.9.7,20.81,20.81,0,0,1-2.8.8,36.15,36.15,0,0,1-4,.7c-1.5.2-3,.4-4.5.5s-3.11.2-4.51.2h-.8A37.64,37.64,0,0,1,765,418a16,16,0,0,1-6.71-3.5,14.39,14.39,0,0,1-4-6.4,30.63,30.63,0,0,1-1.3-9.8V381.5a30.44,30.44,0,0,1,1.4-9.8,14.43,14.43,0,0,1,4.2-6.4,17.35,17.35,0,0,1,6.91-3.5,40,40,0,0,1,9.81-1.1h1.6c2.21,0,4.31.1,6.31.2s3.6.3,5,.5a16.38,16.38,0,0,1,3.3.8c.8.3,1.2.6,1.2,1a5.07,5.07,0,0,1-.4,2c-.3.8-.6,1.1-1.1,1.1-.8-.2-1.7-.4-2.6-.6s-1.91-.3-2.91-.5l-3.6-.3c-1.4-.1-2.9-.1-4.71-.1h-1.6a32.46,32.46,0,0,0-8.21.9,13,13,0,0,0-5.6,2.9,11.35,11.35,0,0,0-3.21,5.3A27.36,27.36,0,0,0,757.76,382Zm43.45,34.9V363.8c0-1.4.5-2,1.4-2h29.13a2.63,2.63,0,0,1,1.2.3c.4.2.5.5.5,1a6.78,6.78,0,0,1-.3,2c-.2.6-.4.9-.7.9H805.81v21.5h24.13a2.63,2.63,0,0,1,1.2.3,1,1,0,0,1,.6,1,4.27,4.27,0,0,1-.4,1.9c-.3.6-.5,1-.7,1H805.81v22.4h25.83a2.63,2.63,0,0,1,1.2.3c.4.2.5.5.5,1a6.78,6.78,0,0,1-.3,2c-.2.6-.4.9-.7.9H803.91a5.53,5.53,0,0,1-1.8-.3C801.51,417.5,801.21,417.3,801.21,416.9Zm75.88-6.8V361.8c0-.3.3-.5,1-.7a7.88,7.88,0,0,1,2.3-.4.79.79,0,0,1,.9.69h0a8.33,8.33,0,0,1,.2,1.5v54a2.06,2.06,0,0,1-.4,1.4,1.59,1.59,0,0,1-1,.6,6.85,6.85,0,0,1-1.9-.3c-.7-.2-1.1-.4-1.2-.7l-31-48.4V417a2.71,2.71,0,0,1-.3,1.4,1.2,1.2,0,0,1-1,.6,5.23,5.23,0,0,1-2.21-.4c-.7-.2-1-.5-1-.7v-56c0-.3.3-.5.9-.8a4.93,4.93,0,0,1,2.21-.4,1.24,1.24,0,0,1,.9.4,2.3,2.3,0,0,1,.5.7ZM895.21,382v15.8a36.14,36.14,0,0,0,.8,8.1,11.14,11.14,0,0,0,2.7,5.3,9.82,9.82,0,0,0,4.81,2.9,25,25,0,0,0,7.21.9h.6a44.3,44.3,0,0,0,7-.5c1.91-.4,3.21-.6,3.91-.7.4-.1.7.3.9,1.1a8,8,0,0,1,.2,2c0,.3-.4.5-1.1.8a13.78,13.78,0,0,1-2.9.7c-1.21.2-2.51.3-4,.4s-2.9.2-4.4.2h-.6a32.3,32.3,0,0,1-8.81-1.1,14.66,14.66,0,0,1-6.21-3.5,13.85,13.85,0,0,1-3.7-6.4,34.12,34.12,0,0,1-1.21-9.8V381.4a34.12,34.12,0,0,1,1.21-9.8,15.4,15.4,0,0,1,3.7-6.4,15,15,0,0,1,6.31-3.5,33,33,0,0,1,8.91-1.1h.6c1.3,0,2.6.1,4,.2s2.8.2,4,.4,2.2.4,3,.6,1.2.5,1.2.8a18,18,0,0,1-.2,2.2c-.1.7-.4,1-.7,1a6.36,6.36,0,0,1-1.5-.3,14.52,14.52,0,0,0-2.51-.4c-1-.1-2.1-.2-3.3-.4a22.34,22.34,0,0,0-3.7-.2h-.6a25.75,25.75,0,0,0-7.31.9,10.51,10.51,0,0,0-4.81,2.9,12.67,12.67,0,0,0-2.7,5.3A41.59,41.59,0,0,0,895.21,382Zm35.44,34.9V363.8c0-1.4.5-2,1.4-2h29.13a2.63,2.63,0,0,1,1.2.3c.4.2.5.5.5,1a6.78,6.78,0,0,1-.3,2c-.2.6-.4.9-.7.9H935.25v21.5h24.13a2.63,2.63,0,0,1,1.2.3,1,1,0,0,1,.6,1,4.27,4.27,0,0,1-.4,1.9c-.3.6-.5,1-.7,1H935.25v22.4h25.83a2.63,2.63,0,0,1,1.2.3c.4.2.5.5.5,1a6.78,6.78,0,0,1-.3,2c-.2.6-.4.9-.7.9H933.35a5.53,5.53,0,0,1-1.8-.3C931.05,417.5,930.65,417.3,930.65,416.9Zm59.46.1a2.61,2.61,0,0,1-.3,1.4,1.16,1.16,0,0,1-1.1.6,5.37,5.37,0,0,1-2.2-.4c-.7-.2-1.1-.5-1.1-.7v-56c0-.3.4-.5,1.1-.8a5.37,5.37,0,0,1,2.2-.4,1.16,1.16,0,0,1,1.1.6,3.23,3.23,0,0,1,.3,1.5Zm45.45-6.9V361.8c0-.3.3-.5,1-.7a7.83,7.83,0,0,1,2.3-.4.8.8,0,0,1,.9.69h0a6.86,6.86,0,0,1,.2,1.5v54a2,2,0,0,1-.4,1.4,1.54,1.54,0,0,1-1,.6,6.85,6.85,0,0,1-1.9-.3c-.7-.2-1.1-.4-1.2-.7l-31-48.4V417a2.71,2.71,0,0,1-.3,1.4,1.2,1.2,0,0,1-1,.6,5.23,5.23,0,0,1-2.21-.4c-.7-.2-1-.5-1-.7v-56c0-.3.3-.5.9-.8a4.93,4.93,0,0,1,2.21-.4,1.24,1.24,0,0,1,.9.4,1.54,1.54,0,0,1,.5.7Zm12.31,3c1.4.4,3.21.8,5.41,1.3a33.81,33.81,0,0,0,7.31.7,24.51,24.51,0,0,0,4.6-.4,15.23,15.23,0,0,0,4.41-1.4,9.12,9.12,0,0,0,3.3-2.9,8,8,0,0,0,1.3-4.8,10.43,10.43,0,0,0-1.9-6.3,27.77,27.77,0,0,0-4.81-5,64,64,0,0,0-6.3-4.4,50.14,50.14,0,0,1-6.31-4.5,24.22,24.22,0,0,1-4.8-5.4,12.45,12.45,0,0,1-1.91-7,10.64,10.64,0,0,1,1.3-5.5,11.71,11.71,0,0,1,3.51-3.8,14.34,14.34,0,0,1,5.2-2.2,25.82,25.82,0,0,1,6.31-.7c.7,0,1.6,0,2.7.1l3.31.3c1.1.1,2.2.3,3.3.5s1.9.4,2.7.6a3.16,3.16,0,0,1,1.2.6c.2.2.2.5.1,1a6.91,6.91,0,0,1-.5,1.6c-.2.5-.6.7-1.3.5a50.91,50.91,0,0,0-5.2-.9,44.86,44.86,0,0,0-5.31-.4,27.08,27.08,0,0,0-5,.5,14.59,14.59,0,0,0-4,1.4,8.18,8.18,0,0,0-2.7,2.5,7.19,7.19,0,0,0-1,3.7,8.35,8.35,0,0,0,1.9,5.5,29.91,29.91,0,0,0,4.81,4.6,61.39,61.39,0,0,0,6.3,4.3,43.08,43.08,0,0,1,6.31,4.7,25,25,0,0,1,4.8,5.9,14.93,14.93,0,0,1,1.91,7.7,12.26,12.26,0,0,1-1.51,6.3,13,13,0,0,1-3.9,4.2,16.51,16.51,0,0,1-5.61,2.3,34.66,34.66,0,0,1-6.5.7c-1.1,0-2.31-.1-3.61-.2s-2.6-.2-3.9-.4-2.4-.3-3.5-.5a11.7,11.7,0,0,1-2.61-.7c-.6-.2-.9-.4-1-.6a2.15,2.15,0,0,1-.2-.9,11.27,11.27,0,0,1,.4-1.9.77.77,0,0,1,.81-.73A.63.63,0,0,1,1047.87,413.1Zm55.26-47.2V417a2.61,2.61,0,0,1-.3,1.4,1.17,1.17,0,0,1-1,.6,5.81,5.81,0,0,1-2.3-.4c-.7-.2-1.1-.5-1.1-.7v-52h-15.92a2.81,2.81,0,0,1-1.4-.3c-.4-.2-.5-.5-.5-1a6.78,6.78,0,0,1,.3-2c.2-.6.4-.9.7-.9h37.44a2.79,2.79,0,0,1,1.3.3,1,1,0,0,1,.6,1,6.18,6.18,0,0,1-.3,2c-.2.6-.4.9-.7.9Zm27,51.1a2.61,2.61,0,0,1-.3,1.4,1.36,1.36,0,0,1-1.1.6,5.31,5.31,0,0,1-2.2-.4c-.7-.2-1.1-.5-1.1-.7v-56c0-.3.4-.5,1.1-.8a5.31,5.31,0,0,1,2.2-.4,1.16,1.16,0,0,1,1.1.6,3.23,3.23,0,0,1,.3,1.5Zm26.93-51.1V417a2.61,2.61,0,0,1-.3,1.4,1.19,1.19,0,0,1-1,.6,5.81,5.81,0,0,1-2.3-.4c-.71-.2-1.11-.5-1.11-.7v-52h-15.91a2.81,2.81,0,0,1-1.4-.3c-.4-.2-.5-.5-.5-1a6.78,6.78,0,0,1,.3-2c.2-.6.4-.9.7-.9H1173a2.82,2.82,0,0,1,1.3.3,1,1,0,0,1,.6,1,6.78,6.78,0,0,1-.3,2c-.2.6-.4.9-.7.9Zm56.66,32.5V362c0-.3.4-.5,1.1-.8a5.37,5.37,0,0,1,2.2-.4,1.07,1.07,0,0,1,1.1.7,3.9,3.9,0,0,1,.3,1.5v35.6a33.14,33.14,0,0,1-1.2,9.7,14.9,14.9,0,0,1-3.6,6.3,13.14,13.14,0,0,1-6.11,3.4,32,32,0,0,1-8.61,1h-.6a29.16,29.16,0,0,1-8.31-1,13.24,13.24,0,0,1-5.9-3.4,14.78,14.78,0,0,1-3.51-6.3,33.48,33.48,0,0,1-1.2-9.7V362c0-.3.4-.5,1.1-.8a5.89,5.89,0,0,1,2.31-.4,1,1,0,0,1,1,.7,4.09,4.09,0,0,1,.3,1.5v35.5a33.55,33.55,0,0,0,.8,7.8,12.25,12.25,0,0,0,2.5,5.1,9.63,9.63,0,0,0,4.41,2.8,20.72,20.72,0,0,0,6.5.9h.6a22.38,22.38,0,0,0,6.81-.9,10.28,10.28,0,0,0,4.61-2.8,11.24,11.24,0,0,0,2.6-5.1A30.43,30.43,0,0,0,1213.75,398.4Zm31.73-32.5V417a2.61,2.61,0,0,1-.3,1.4,1.17,1.17,0,0,1-1,.6,5.84,5.84,0,0,1-2.3-.4c-.7-.2-1.1-.5-1.1-.7v-52h-15.92a2.83,2.83,0,0,1-1.4-.3c-.4-.2-.5-.5-.5-1a6.78,6.78,0,0,1,.3-2c.2-.6.4-.9.7-.9h37.44a2.79,2.79,0,0,1,1.3.3,1,1,0,0,1,.6,1,6.18,6.18,0,0,1-.3,2c-.2.6-.4.9-.7.9Zm22.33,51V363.8c0-1.4.5-2,1.4-2h29.13a2.63,2.63,0,0,1,1.2.3c.4.2.5.5.5,1a6.78,6.78,0,0,1-.3,2c-.2.6-.4.9-.7.9h-26.63v21.5h24.13a2.63,2.63,0,0,1,1.2.3,1,1,0,0,1,.6,1,4.41,4.41,0,0,1-.4,1.9c-.3.6-.5,1-.7,1h-24.83v22.4h25.83a2.63,2.63,0,0,1,1.2.3c.4.2.5.5.5,1a6.78,6.78,0,0,1-.3,2c-.2.6-.4.9-.7.9h-28.43a5.53,5.53,0,0,1-1.8-.3C1268.11,417.5,1267.81,417.3,1267.81,416.9Z" transform="translate(1)"/><path id="b833aff5-23bc-4fee-aa66-2fd8417dc586" data-name="a6adeb8c-b564-45f3-9b30-412d6a88f8c1" class="a7b1b108-63f5-4f73-9ab9-a367c2af562a" d="M682.88,59H792.6a4.81,4.81,0,0,1,4.81,4.8v110a4.81,4.81,0,0,1-4.81,4.8H682.88a4.8,4.8,0,0,1-4.8-4.8V63.8A4.87,4.87,0,0,1,682.88,59Zm79.29,95.8c.6,0,1.1-.5,1.4-1.5a16.76,16.76,0,0,0,.8-3.5c.2-1.3.3-2.6.4-4s.1-2.4.1-3.1a6,6,0,0,0-.8-2.8,2.32,2.32,0,0,0-2-1.4H734.24c5.7-5.8,10.21-10.8,13.71-14.9a96.72,96.72,0,0,0,8.11-10.7,33.1,33.1,0,0,0,3.81-7.5,20.93,20.93,0,0,0,1-5.6,22.88,22.88,0,0,0-2.31-10.6,19.59,19.59,0,0,0-6.1-7,25,25,0,0,0-8.91-3.9,48.56,48.56,0,0,0-11-1.2,63.74,63.74,0,0,0-6.91.4,87.38,87.38,0,0,0-10.41,1.9,2.35,2.35,0,0,0-1.8,1.8,6.61,6.61,0,0,0,0,2.8c.1.6.4,1.5.7,2.8a22.85,22.85,0,0,0,1.2,3.7,19.39,19.39,0,0,0,1.4,3.2c.5.9,1.1,1.3,1.7,1.2,2.2-.2,4.51-.5,6.81-.8a50.34,50.34,0,0,1,6.61-.4,19.66,19.66,0,0,1,7.4,1.2c2,.8,3,2.5,3,5a10.39,10.39,0,0,1-1,4.1,38.87,38.87,0,0,1-4.21,6.6c-2.2,2.8-5.4,6.5-9.61,11s-9.81,10.2-16.92,17.1a7,7,0,0,0-1,2.4,34,34,0,0,0-.8,3.6c-.2,1.3-.4,2.5-.5,3.7s-.2,2-.2,2.5a9.6,9.6,0,0,0,.4,2.5,2.16,2.16,0,0,0,2.4,1.6h51.36ZM889.8,59H999.52a4.8,4.8,0,0,1,4.81,4.8v110a4.8,4.8,0,0,1-4.81,4.8H889.8a4.8,4.8,0,0,1-4.8-4.8V63.8A4.8,4.8,0,0,1,889.8,59Zm79.29,95.8c.6,0,1.1-.5,1.4-1.5a16.76,16.76,0,0,0,.8-3.5c.2-1.3.3-2.6.4-4s.1-2.4.1-3.1a6,6,0,0,0-.8-2.8,2.32,2.32,0,0,0-2-1.4H941.16c5.71-5.8,10.21-10.8,13.71-14.9A96.72,96.72,0,0,0,963,112.9a32.7,32.7,0,0,0,3.81-7.5,20.93,20.93,0,0,0,1-5.6,22.88,22.88,0,0,0-2.31-10.6,19.59,19.59,0,0,0-6.1-7,25,25,0,0,0-8.91-3.9,48.56,48.56,0,0,0-11-1.2,63.74,63.74,0,0,0-6.91.4,87.38,87.38,0,0,0-10.41,1.9,2.35,2.35,0,0,0-1.8,1.8,6.61,6.61,0,0,0,0,2.8c.1.6.4,1.5.7,2.8a22.85,22.85,0,0,0,1.2,3.7,19.39,19.39,0,0,0,1.4,3.2c.5.9,1.1,1.3,1.7,1.2,2.2-.2,4.51-.5,6.81-.8a50.34,50.34,0,0,1,6.61-.4,19.66,19.66,0,0,1,7.4,1.2c2,.8,3,2.5,3,5a10.39,10.39,0,0,1-1,4.1,38.26,38.26,0,0,1-4.21,6.6c-2.2,2.8-5.4,6.5-9.61,11s-9.81,10.2-16.92,17.1a7,7,0,0,0-1,2.4,34,34,0,0,0-.8,3.6c-.2,1.3-.4,2.5-.5,3.7s-.2,2-.2,2.5a9.6,9.6,0,0,0,.4,2.5,2.16,2.16,0,0,0,2.4,1.6h51.36ZM645.24,246.1l-14.51-44H566.86l-15.32,44.8c-.9,2.6-3.5,4.2-7.9,4.7a125.69,125.69,0,0,1-14.12.8,18.11,18.11,0,0,1-6.71-1.2,4.46,4.46,0,0,1-3.1-4.6,3.37,3.37,0,0,1,.1-1c.1-.3.2-.8.4-1.3L583.78,64.5c.3-1.2,1.4-2.2,3.2-2.9a33.13,33.13,0,0,1,6.21-1.6c2.3-.3,4.8-.6,7.31-.8s4.7-.3,6.6-.3a7.34,7.34,0,0,1,4.11,1.4,8.75,8.75,0,0,1,3.1,4.3l62.87,179.5c.2.5.3,1,.4,1.3a3.74,3.74,0,0,1,.1,1,4.53,4.53,0,0,1-3.21,4.6,18.85,18.85,0,0,1-6.6,1.2,106.35,106.35,0,0,1-14.92-.9C648.65,250.8,646.14,249,645.24,246.1ZM597,108.4,575,175h47.75l-22-66.6a28.33,28.33,0,0,1-1.21-4.6c-.3-1.6-.6-3.2-.9-4.6a22.3,22.3,0,0,0-.6,4.6A19.09,19.09,0,0,1,597,108.4ZM856.77,245.3a6.45,6.45,0,0,1-2.3,5.1,8.68,8.68,0,0,1-5.71,2c-1.6,0-3.6-.1-6.21-.3s-5.1-.4-7.7-.8a22.83,22.83,0,0,1-6.51-1.7q-2.7-1.2-2.7-2.7V64.5c0-1,.9-2,2.7-2.7a26.58,26.58,0,0,1,6.51-1.7c2.5-.4,5.1-.6,7.7-.8s4.71-.3,6.21-.3a8.39,8.39,0,0,1,5.71,2.1,6.17,6.17,0,0,1,2.3,4.9Z" transform="translate(1)"/><path id="eb71f0bb-0131-4e62-9570-072ce2e1e7f5" data-name="f84b97d5-5dbe-4f58-befa-af5999d30b14" class="a7b1b108-63f5-4f73-9ab9-a367c2af562a" d="M210,59c33.13,0,61.26,19.4,74.48,47.6h0L420.1,411.4a5.22,5.22,0,0,1,.4,3.3,5.41,5.41,0,0,1-6.38,4.21h0L304.58,397c-1.9-36.2-30.53-86.8-94.8-86.8-63.57,0-91.9,51.8-94.8,86.8L5.46,418.9A5.44,5.44,0,0,1-.9,414.59a5.37,5.37,0,0,1,.36-3.19L135.1,106.6h0A82.84,82.84,0,0,1,210,59Zm0,211.7a49.5,49.5,0,1,0-49.55-49.5h0a49.5,49.5,0,0,0,49.51,49.5Z" transform="translate(1)"/></g></g></g></svg>